<?xml version="1.0" encoding="UTF-8"?>
<!DOCTYPE svg PUBLIC "-//W3C//DTD SVG 1.1//EN" "http://www.w3.org/Graphics/SVG/1.1/DTD/svg11.dtd">
<svg xmlns="http://www.w3.org/2000/svg" version="1.1" width="64px" height="64px" style="shape-rendering:geometricPrecision; text-rendering:geometricPrecision; image-rendering:optimizeQuality; fill-rule:evenodd; clip-rule:evenodd" xmlns:xlink="http://www.w3.org/1999/xlink">
<g><path style="opacity:1" fill="#fbfdfe" d="M -0.5,-0.5 C 20.8333,-0.5 42.1667,-0.5 63.5,-0.5C 63.5,20.8333 63.5,42.1667 63.5,63.5C 42.1667,63.5 20.8333,63.5 -0.5,63.5C -0.5,42.1667 -0.5,20.8333 -0.5,-0.5 Z"/></g>
<g><path style="opacity:1" fill="#b3d6ec" d="M 15.5,11.5 C 14.1667,11.5 12.8333,11.5 11.5,11.5C 11.62,10.4138 12.2867,9.74716 13.5,9.5C 14.7133,9.74716 15.38,10.4138 15.5,11.5 Z"/></g>
<g><path style="opacity:1" fill="#338dca" d="M 11.5,11.5 C 12.8333,11.5 14.1667,11.5 15.5,11.5C 14.8333,14.1667 14.1667,16.8333 13.5,19.5C 11.8235,18.8166 11.1568,17.4832 11.5,15.5C 11.5,14.1667 11.5,12.8333 11.5,11.5 Z"/></g>
<g><path style="opacity:1" fill="#4193cd" d="M 59.5,29.5 C 59.5,31.1667 59.5,32.8333 59.5,34.5C 58.1667,34.5 57.5,35.1667 57.5,36.5C 56.1667,36.5 55.5,37.1667 55.5,38.5C 53.2494,41.7576 50.5828,44.7576 47.5,47.5C 46.3112,48.4287 44.9778,48.762 43.5,48.5C 43.1568,46.5168 43.8235,45.1834 45.5,44.5C 46.8333,44.5 47.5,43.8333 47.5,42.5C 49.4155,39.5768 51.7488,36.9101 54.5,34.5C 55.8333,32.1667 55.8333,29.8333 54.5,27.5C 50.8333,23.8333 47.1667,20.1667 43.5,16.5C 44.8333,15.1667 46.1667,15.1667 47.5,16.5C 51.9117,20.5734 55.9117,24.9067 59.5,29.5 Z"/></g>
<g><path style="opacity:1" fill="#63a9d8" d="M 11.5,15.5 C 11.1568,17.4832 11.8235,18.8166 13.5,19.5C 13.5,20.1667 13.5,20.8333 13.5,21.5C 12.8333,21.5 12.1667,21.5 11.5,21.5C 10.8333,21.5 10.1667,21.5 9.5,21.5C 9.02539,18.9179 9.69206,16.9179 11.5,15.5 Z"/></g>
<g><path style="opacity:1" fill="#1a83c6" d="M 9.5,21.5 C 10.1667,21.5 10.8333,21.5 11.5,21.5C 11.5,22.8333 11.5,24.1667 11.5,25.5C 11.5,26.1667 11.5,26.8333 11.5,27.5C 10.8333,27.5 10.1667,27.5 9.5,27.5C 9.5,26.1667 9.5,24.8333 9.5,23.5C 9.5,22.8333 9.5,22.1667 9.5,21.5 Z"/></g>
<g><path style="opacity:1" fill="#b1d4eb" d="M 11.5,21.5 C 12.1667,21.5 12.8333,21.5 13.5,21.5C 13.8432,23.4832 13.1765,24.8166 11.5,25.5C 11.5,24.1667 11.5,22.8333 11.5,21.5 Z"/></g>
<g><path style="opacity:1" fill="#7eb8df" d="M 9.5,23.5 C 9.5,24.8333 9.5,26.1667 9.5,27.5C 8.83333,27.5 8.16667,27.5 7.5,27.5C 7.15684,25.5168 7.82351,24.1834 9.5,23.5 Z"/></g>
<g><path style="opacity:1" fill="#2287c8" d="M 7.5,27.5 C 8.16667,27.5 8.83333,27.5 9.5,27.5C 9.5,28.8333 9.5,30.1667 9.5,31.5C 9.5,33.1667 9.5,34.8333 9.5,36.5C 8.83333,36.5 8.16667,36.5 7.5,36.5C 7.5,34.8333 7.5,33.1667 7.5,31.5C 7.5,30.1667 7.5,28.8333 7.5,27.5 Z"/></g>
<g><path style="opacity:1" fill="#89bee1" d="M 9.5,27.5 C 10.1667,27.5 10.8333,27.5 11.5,27.5C 11.8432,29.4832 11.1765,30.8166 9.5,31.5C 9.5,30.1667 9.5,28.8333 9.5,27.5 Z"/></g>
<g><path style="opacity:1" fill="#3b92cd" d="M 21.5,31.5 C 21.2852,33.1788 21.9519,34.1788 23.5,34.5C 23.5,35.8333 24.1667,36.5 25.5,36.5C 25.5,37.8333 26.1667,38.5 27.5,38.5C 27.5,39.8333 28.1667,40.5 29.5,40.5C 29.5,41.8333 30.1667,42.5 31.5,42.5C 32.1834,44.1765 33.5168,44.8432 35.5,44.5C 35.5,45.8333 35.5,47.1667 35.5,48.5C 34.0222,48.762 32.6888,48.4287 31.5,47.5C 26.2671,42.7711 21.6005,37.6044 17.5,32C 21.6005,26.3956 26.2671,21.2289 31.5,16.5C 32.8333,15.1667 34.1667,15.1667 35.5,16.5C 30.4229,21.2394 25.7562,26.2394 21.5,31.5 Z"/></g>
<g><path style="opacity:1" fill="#95c6e4" d="M 21.5,31.5 C 23.0481,31.8212 23.7148,32.8212 23.5,34.5C 21.9519,34.1788 21.2852,33.1788 21.5,31.5 Z"/></g>
<g><path style="opacity:1" fill="#89bfe1" d="M 59.5,29.5 C 60.6491,29.7911 61.3158,30.6244 61.5,32C 61.3158,33.3756 60.6491,34.2089 59.5,34.5C 59.5,32.8333 59.5,31.1667 59.5,29.5 Z"/></g>
<g><path style="opacity:1" fill="#72b2db" d="M 7.5,31.5 C 7.5,33.1667 7.5,34.8333 7.5,36.5C 6.83333,36.5 6.16667,36.5 5.5,36.5C 5.07729,34.2188 5.74395,32.5521 7.5,31.5 Z"/></g>
<g><path style="opacity:1" fill="#97c7e4" d="M 23.5,34.5 C 24.8333,34.5 25.5,35.1667 25.5,36.5C 25.5,35.1667 24.8333,34.5 23.5,34.5 Z"/></g>
<g><path style="opacity:1" fill="#93c5e3" d="M 59.5,34.5 C 59.5,35.8333 58.8333,36.5 57.5,36.5C 57.5,35.1667 58.1667,34.5 59.5,34.5 Z"/></g>
<g><path style="opacity:1" fill="#9ccae6" d="M 25.5,36.5 C 26.8333,36.5 27.5,37.1667 27.5,38.5C 27.5,37.1667 26.8333,36.5 25.5,36.5 Z"/></g>
<g><path style="opacity:1" fill="#8fc3e2" d="M 57.5,36.5 C 57.5,37.8333 56.8333,38.5 55.5,38.5C 55.5,37.1667 56.1667,36.5 57.5,36.5 Z"/></g>
<g><path style="opacity:1" fill="#98c7e5" d="M 7.5,36.5 C 8.16667,36.5 8.83333,36.5 9.5,36.5C 9.84316,38.4832 9.17649,39.8166 7.5,40.5C 7.5,39.1667 7.5,37.8333 7.5,36.5 Z"/></g>
<g><path style="opacity:1" fill="#9fcce7" d="M 27.5,38.5 C 28.8333,38.5 29.5,39.1667 29.5,40.5C 29.5,39.1667 28.8333,38.5 27.5,38.5 Z"/></g>
<g><path style="opacity:1" fill="#99c8e5" d="M 5.5,38.5 C 5.84316,40.4832 5.17649,41.8166 3.5,42.5C 3.15684,40.5168 3.82351,39.1834 5.5,38.5 Z"/></g>
<g><path style="opacity:1" fill="#a3cee8" d="M 29.5,40.5 C 30.8333,40.5 31.5,41.1667 31.5,42.5C 31.5,41.1667 30.8333,40.5 29.5,40.5 Z"/></g>
<g><path style="opacity:1" fill="#4898d0" d="M 5.5,36.5 C 6.16667,36.5 6.83333,36.5 7.5,36.5C 7.5,37.8333 7.5,39.1667 7.5,40.5C 6.83333,44.5 6.16667,48.5 5.5,52.5C 4.16667,52.5 2.83333,52.5 1.5,52.5C 1.75734,49.0678 2.42401,45.7345 3.5,42.5C 5.17649,41.8166 5.84316,40.4832 5.5,38.5C 5.5,37.8333 5.5,37.1667 5.5,36.5 Z"/></g>
<g><path style="opacity:1" fill="#6db1db" d="M 47.5,42.5 C 47.5,43.8333 46.8333,44.5 45.5,44.5C 45.5,43.1667 46.1667,42.5 47.5,42.5 Z"/></g>
</svg>
